<?xml version="1.0" encoding="utf-8"?>
<svg viewBox="232.019 232.018 335.035 334.107" xmlns="http://www.w3.org/2000/svg">
  <radialGradient id="a" cx="400" cy="400" r="159.92" gradientUnits="userSpaceOnUse">
    <stop offset="0.0215"/>
    <stop offset="0.9409"/>
    <stop stop-color="#808285" offset="1"/>
  </radialGradient>
  <path d="m395.3 317.6l-129.5 77.8c1.6-49.1 29.6-91.5 70.2-113.5l59.3 35.7z"/>
  <path d="m470.2 285.4l-1.2 69.3-132.1-73.3c18.8-10 40.3-15.7 63.1-15.7 25.7 0 49.8 7.2 70.2 19.7z"/>
  <path d="m534.3 400v3.4l-60.6 33.6-2.6-151c38 23.7 63.2 65.9 63.2 114z"/>
  <path d="m534.3 404.5c-1.6 49.2-29.7 91.8-70.5 113.8l-59.2-35.7 129.7-78.1z"/>
  <path d="m462.9 518.8c-18.8 10-40.2 15.6-62.9 15.6-25.7 0-49.8-7.2-70.2-19.8l1.2-69.3 131.9 73.5z"/>
  <path d="m328.9 514c-38-23.7-63.3-65.9-63.3-114v-3.5l60.6-33.6 2.7 151.1z"/>
  <path d="m326.3 362.9l2.7 151.1c-38-23.7-63.3-65.9-63.3-114v-3.5l60.6-33.6z" fill="none" stroke="#000" stroke-miterlimit="10" stroke-width="2"/>
  <path d="m395.3 317.6l-129.5 77.8c1.6-49.1 29.6-91.5 70.2-113.5l59.3 35.7z" fill="none" stroke="#000" stroke-miterlimit="10" stroke-width="2"/>
  <path d="m331 445.3l131.9 73.4c-18.8 10-40.2 15.6-62.9 15.6-25.7 0-49.8-7.2-70.2-19.8l1.2-69.2z" fill="none" stroke="#000" stroke-miterlimit="10" stroke-width="2"/>
  <path d="m469 354.7l-132.1-73.3c18.8-10 40.3-15.7 63.1-15.7 25.7 0 49.8 7.2 70.2 19.8l-1.2 69.2z" fill="none" stroke="#000" stroke-miterlimit="10" stroke-width="2"/>
  <path d="m404.6 482.5l129.7-78c-1.6 49.2-29.7 91.8-70.5 113.8l-59.2-35.8z" fill="none" stroke="#000" stroke-miterlimit="10" stroke-width="2"/>
  <path d="m534.3 400v3.4l-60.6 33.6-2.6-151c38 23.7 63.2 65.9 63.2 114z" fill="none" stroke="#000" stroke-miterlimit="10" stroke-width="2"/>
  <path d="m400 240.1c-88.2 0-159.9 71.7-159.9 159.9s71.7 159.9 159.9 159.9 159.9-71.7 159.9-159.9-71.7-159.9-159.9-159.9zm0 301.8c-78.3 0-141.9-63.7-141.9-141.9s63.6-141.9 141.9-141.9 141.9 63.7 141.9 141.9-63.6 141.9-141.9 141.9z" fill="url(#a)"/>
  <path d="M 400.238 263.028 C 324.038 263.028 262.232 324.828 262.1 400.928 C 261.968 477.028 323.561 538.828 399.761 538.828 C 475.961 538.828 537.768 477.028 537.9 400.928 C 538.031 324.828 476.438 263.028 400.238 263.028 Z M 400.232 266.628 C 425.932 266.628 450.019 273.828 470.397 286.428 L 469.078 355.728 L 337.104 282.428 C 355.922 272.328 377.432 266.628 400.232 266.628 Z M 336.104 282.828 L 395.442 318.528 L 265.807 396.328 C 267.493 347.328 295.465 304.928 336.104 282.828 Z M 265.7 400.928 L 265.706 397.428 L 326.364 363.828 L 328.803 514.928 C 290.744 491.228 265.617 449.028 265.7 400.928 Z M 399.768 535.228 C 374.068 535.228 349.98 528.028 329.602 515.428 L 330.922 446.128 L 462.695 519.528 C 443.877 529.628 422.468 535.228 399.768 535.228 Z M 463.596 519.228 L 404.457 483.528 L 534.292 405.528 C 532.607 454.628 504.434 497.128 463.596 519.228 Z M 473.636 437.928 L 471.297 286.928 C 509.255 310.628 534.383 352.828 534.3 400.928 L 534.294 404.328 L 473.636 437.928 Z" fill="#fff" style=""/>
</svg>